<mxfile host="app.diagrams.net" modified="2020-12-12T16:47:45.925Z" agent="5.0 (Windows NT 10.0; Win64; x64) AppleWebKit/537.36 (KHTML, like Gecko) Chrome/87.0.4280.88 Safari/537.36 Edg/87.0.664.60" etag="jRxl1xO82_swjBPmlgAH" version="14.0.1" type="github">
  <diagram id="hhdeXkNzdPH15dCn2UBC" name="Page-1">
    <mxGraphModel dx="1422" dy="756" grid="1" gridSize="10" guides="1" tooltips="1" connect="1" arrows="1" fold="1" page="1" pageScale="1" pageWidth="1169" pageHeight="827" math="0" shadow="0">
      <root>
        <mxCell id="0" />
        <mxCell id="1" parent="0" />
        <mxCell id="nYRSAOW_KHFws5IzxBvr-17" style="edgeStyle=orthogonalEdgeStyle;rounded=0;orthogonalLoop=1;jettySize=auto;html=1;entryX=0;entryY=0.5;entryDx=0;entryDy=0;fontSize=18;" edge="1" parent="1" source="nYRSAOW_KHFws5IzxBvr-2" target="nYRSAOW_KHFws5IzxBvr-5">
          <mxGeometry relative="1" as="geometry" />
        </mxCell>
        <mxCell id="nYRSAOW_KHFws5IzxBvr-2" value="debug&lt;br style=&quot;font-size: 18px;&quot;&gt;develop" style="rounded=0;whiteSpace=wrap;html=1;fontSize=18;" vertex="1" parent="1">
          <mxGeometry x="220" y="40" width="100" height="60" as="geometry" />
        </mxCell>
        <mxCell id="nYRSAOW_KHFws5IzxBvr-19" style="edgeStyle=orthogonalEdgeStyle;rounded=0;orthogonalLoop=1;jettySize=auto;html=1;entryX=0;entryY=0.5;entryDx=0;entryDy=0;fontSize=18;" edge="1" parent="1" source="nYRSAOW_KHFws5IzxBvr-4">
          <mxGeometry relative="1" as="geometry">
            <mxPoint x="710" y="70" as="targetPoint" />
          </mxGeometry>
        </mxCell>
        <mxCell id="nYRSAOW_KHFws5IzxBvr-4" value="git commit&lt;br style=&quot;font-size: 18px;&quot;&gt;git push" style="rounded=0;whiteSpace=wrap;html=1;fontSize=18;" vertex="1" parent="1">
          <mxGeometry x="540" y="40" width="110" height="60" as="geometry" />
        </mxCell>
        <mxCell id="nYRSAOW_KHFws5IzxBvr-18" style="edgeStyle=orthogonalEdgeStyle;rounded=0;orthogonalLoop=1;jettySize=auto;html=1;fontSize=18;" edge="1" parent="1" source="nYRSAOW_KHFws5IzxBvr-5" target="nYRSAOW_KHFws5IzxBvr-4">
          <mxGeometry relative="1" as="geometry" />
        </mxCell>
        <mxCell id="nYRSAOW_KHFws5IzxBvr-5" value="self test" style="rounded=0;whiteSpace=wrap;html=1;fontSize=18;" vertex="1" parent="1">
          <mxGeometry x="380" y="40" width="100" height="60" as="geometry" />
        </mxCell>
        <mxCell id="nYRSAOW_KHFws5IzxBvr-16" style="edgeStyle=orthogonalEdgeStyle;rounded=0;orthogonalLoop=1;jettySize=auto;html=1;entryX=0;entryY=0.5;entryDx=0;entryDy=0;fontSize=18;" edge="1" parent="1" source="nYRSAOW_KHFws5IzxBvr-15" target="nYRSAOW_KHFws5IzxBvr-2">
          <mxGeometry relative="1" as="geometry" />
        </mxCell>
        <mxCell id="nYRSAOW_KHFws5IzxBvr-15" value="issue asign" style="rounded=0;whiteSpace=wrap;html=1;fontSize=18;" vertex="1" parent="1">
          <mxGeometry x="40" y="40" width="120" height="60" as="geometry" />
        </mxCell>
        <mxCell id="nYRSAOW_KHFws5IzxBvr-21" style="edgeStyle=orthogonalEdgeStyle;rounded=0;orthogonalLoop=1;jettySize=auto;html=1;entryX=0;entryY=0.5;entryDx=0;entryDy=0;fontSize=18;" edge="1" parent="1" source="nYRSAOW_KHFws5IzxBvr-22" target="nYRSAOW_KHFws5IzxBvr-23">
          <mxGeometry relative="1" as="geometry" />
        </mxCell>
        <mxCell id="nYRSAOW_KHFws5IzxBvr-22" value="code review" style="rounded=0;whiteSpace=wrap;html=1;fontSize=18;" vertex="1" parent="1">
          <mxGeometry x="100" y="140" width="120" height="60" as="geometry" />
        </mxCell>
        <mxCell id="nYRSAOW_KHFws5IzxBvr-23" value="code submit" style="rounded=0;whiteSpace=wrap;html=1;fontSize=18;" vertex="1" parent="1">
          <mxGeometry x="290" y="140" width="130" height="60" as="geometry" />
        </mxCell>
        <mxCell id="nYRSAOW_KHFws5IzxBvr-24" style="edgeStyle=orthogonalEdgeStyle;rounded=0;orthogonalLoop=1;jettySize=auto;html=1;entryX=0;entryY=0.5;entryDx=0;entryDy=0;fontSize=18;" edge="1" parent="1">
          <mxGeometry relative="1" as="geometry">
            <mxPoint x="40" y="169.5" as="sourcePoint" />
            <mxPoint x="100" y="169.5" as="targetPoint" />
          </mxGeometry>
        </mxCell>
        <mxCell id="nYRSAOW_KHFws5IzxBvr-25" style="edgeStyle=orthogonalEdgeStyle;rounded=0;orthogonalLoop=1;jettySize=auto;html=1;entryX=0;entryY=0.5;entryDx=0;entryDy=0;fontSize=18;" edge="1" parent="1" source="nYRSAOW_KHFws5IzxBvr-26" target="nYRSAOW_KHFws5IzxBvr-27">
          <mxGeometry relative="1" as="geometry" />
        </mxCell>
        <mxCell id="nYRSAOW_KHFws5IzxBvr-26" value="QC test" style="rounded=0;whiteSpace=wrap;html=1;fontSize=18;" vertex="1" parent="1">
          <mxGeometry x="480" y="140" width="120" height="60" as="geometry" />
        </mxCell>
        <mxCell id="nYRSAOW_KHFws5IzxBvr-27" value="Release note&lt;br&gt;Release patch" style="rounded=0;whiteSpace=wrap;html=1;fontSize=18;" vertex="1" parent="1">
          <mxGeometry x="670" y="140" width="130" height="60" as="geometry" />
        </mxCell>
        <mxCell id="nYRSAOW_KHFws5IzxBvr-28" style="edgeStyle=orthogonalEdgeStyle;rounded=0;orthogonalLoop=1;jettySize=auto;html=1;entryX=0;entryY=0.5;entryDx=0;entryDy=0;fontSize=18;" edge="1" parent="1">
          <mxGeometry relative="1" as="geometry">
            <mxPoint x="420" y="169.5" as="sourcePoint" />
            <mxPoint x="480" y="169.5" as="targetPoint" />
          </mxGeometry>
        </mxCell>
        <mxCell id="nYRSAOW_KHFws5IzxBvr-30" style="edgeStyle=orthogonalEdgeStyle;rounded=0;orthogonalLoop=1;jettySize=auto;html=1;entryX=0;entryY=0.5;entryDx=0;entryDy=0;fontSize=18;" edge="1" parent="1" source="nYRSAOW_KHFws5IzxBvr-31" target="nYRSAOW_KHFws5IzxBvr-32">
          <mxGeometry relative="1" as="geometry" />
        </mxCell>
        <mxCell id="nYRSAOW_KHFws5IzxBvr-31" value="Customer check" style="rounded=0;whiteSpace=wrap;html=1;fontSize=18;" vertex="1" parent="1">
          <mxGeometry x="100" y="240" width="120" height="60" as="geometry" />
        </mxCell>
        <mxCell id="nYRSAOW_KHFws5IzxBvr-32" value="issue close" style="rounded=0;whiteSpace=wrap;html=1;fontSize=18;" vertex="1" parent="1">
          <mxGeometry x="290" y="240" width="130" height="60" as="geometry" />
        </mxCell>
        <mxCell id="nYRSAOW_KHFws5IzxBvr-33" style="edgeStyle=orthogonalEdgeStyle;rounded=0;orthogonalLoop=1;jettySize=auto;html=1;entryX=0;entryY=0.5;entryDx=0;entryDy=0;fontSize=18;" edge="1" parent="1">
          <mxGeometry relative="1" as="geometry">
            <mxPoint x="40" y="269.5" as="sourcePoint" />
            <mxPoint x="100" y="269.5" as="targetPoint" />
          </mxGeometry>
        </mxCell>
        <mxCell id="nYRSAOW_KHFws5IzxBvr-34" style="edgeStyle=orthogonalEdgeStyle;rounded=0;orthogonalLoop=1;jettySize=auto;html=1;entryX=0;entryY=0.5;entryDx=0;entryDy=0;fontSize=18;" edge="1" parent="1">
          <mxGeometry relative="1" as="geometry">
            <mxPoint x="800" y="169.5" as="sourcePoint" />
            <mxPoint x="860" y="169.5" as="targetPoint" />
          </mxGeometry>
        </mxCell>
      </root>
    </mxGraphModel>
  </diagram>
</mxfile>
